<svg width="637" height="534" viewBox="0 0 637 534" fill="none" xmlns="http://www.w3.org/2000/svg">
<g opacity="0.4">
<path d="M636.6 340.694C637.2 330.262 636.9 319.829 635.7 309.396C630.2 260.642 605.3 214.697 568.6 182.195C555.5 170.658 540.6 160.326 532.1 144.977C517.7 119.296 518.8 89.7032 501 64.3232C483.2 38.8428 457.2 18.9802 427.9 8.84825C340.5 -21.5476 218.1 27.9084 229.2 133.541C229.2 133.943 229.233 134.478 229.3 135.146C230.8 157.116 213.6 175.574 191.7 176.076C111.1 177.982 41.7 240.378 26.9 319.327C17.3 370.087 33 425.763 70 461.776C97.7 488.561 134.8 503.307 171.9 513.439C246.3 533.703 324.6 538.017 401.3 530.192C473.2 522.969 548.9 502.204 595.4 446.829C620.2 417.236 634.3 379.316 636.6 340.694Z" fill="#C5D9FF"/>
</g>
<g opacity="0.9">
<path d="M570.3 345.71C570.8 337.484 570.5 329.359 569.6 321.233C565.3 283.012 545.8 246.999 517 221.519C506.8 212.49 495.1 204.365 488.4 192.427C477.2 172.263 478 149.09 464.1 129.127C450.1 109.265 429.7 93.7157 406.8 85.6904C338.3 61.9155 242.5 100.638 251.1 183.398C251.167 183.666 251.2 184.101 251.2 184.703C252.4 201.857 238.9 216.302 221.8 216.703C158.6 218.208 104.3 267.062 92.6 328.957C85.2 368.783 97.4 412.32 126.4 440.509C148.1 461.475 177.2 473.011 206.2 481.037C264.5 496.887 325.9 500.197 386 494.178C442.3 488.46 501.6 472.209 538 428.772C557.4 405.599 568.5 375.905 570.3 345.71Z" fill="#C5D9FF"/>
</g>
<g opacity="0.3">
<path d="M619.3 78.7687C619.3 89.7031 610.5 98.531 599.6 98.531C588.7 98.531 579.8 89.7031 579.8 78.7687C579.8 67.8342 588.7 59.0063 599.6 59.0063C610.5 59.0063 619.3 67.8342 619.3 78.7687Z" fill="#C5D9FF"/>
</g>
<g opacity="0.3">
<path d="M189.4 55.8967C189.4 68.5366 179.1 78.7689 166.5 78.7689C153.9 78.7689 143.6 68.5366 143.6 55.8967C143.6 43.1566 153.9 32.9243 166.5 32.9243C179.1 32.9243 189.4 43.1566 189.4 55.8967Z" fill="#C5D9FF"/>
</g>
<g opacity="0.3">
<path d="M59.1 496.385C59.1 512.837 45.9 526.079 29.6 526.079C13.3 526.079 0 512.837 0 496.385C0 480.034 13.3 466.792 29.6 466.792C45.9 466.792 59.1 480.034 59.1 496.385Z" fill="#C5D9FF"/>
</g>
<path d="M367.2 157.717C367.2 215.7 320.4 262.648 262.6 262.648C204.8 262.648 157.9 215.7 157.9 157.717C157.9 99.7346 204.8 52.6863 262.6 52.6863C320.4 52.6863 367.2 99.7346 367.2 157.717Z" fill="#AF9CDA"/>
<path d="M335.2 233.356C334.933 233.356 334.7 233.256 334.5 233.055C334.1 232.654 334.1 231.952 334.5 231.651C354.1 211.989 364.9 185.806 364.9 158.119C364.9 130.331 354.1 104.149 334.5 84.5869C315 64.9249 288.9 54.0908 261.2 54.0908C233.6 54.0908 207.5 64.9249 187.9 84.5869C187.6 84.8879 186.9 84.8879 186.5 84.5869C186.1 84.1857 186.1 83.4835 186.5 83.0822C206.5 63.1193 233 52.0845 261.2 52.0845C289.5 52.0845 316 63.1193 336 83.0822C355.9 103.145 366.9 129.729 366.9 158.119C366.9 186.408 355.9 212.992 336 233.055C335.733 233.256 335.467 233.356 335.2 233.356Z" fill="#243762"/>
<path d="M342.2 157.717C342.2 201.857 306.6 237.569 262.6 237.569C218.6 237.569 182.9 201.857 182.9 157.717C182.9 113.578 218.6 77.7654 262.6 77.7654C306.6 77.7654 342.2 113.578 342.2 157.717Z" fill="white"/>
<path d="M262.6 238.572C218.1 238.572 181.9 202.358 181.9 157.717C181.9 113.077 218.1 76.7622 262.6 76.7622C263.1 76.7622 263.6 77.2638 263.6 77.7654C263.6 78.3673 263.1 78.7685 262.6 78.7685C219.2 78.7685 183.9 114.18 183.9 157.717C183.9 201.255 219.2 236.566 262.6 236.566C263.1 236.566 263.6 237.068 263.6 237.569C263.6 238.171 263.1 238.572 262.6 238.572Z" fill="#243762"/>
<path d="M283.2 172.966H261.5C257.1 172.966 253.5 169.354 253.5 164.84V134.745C253.5 130.833 256.6 127.723 260.5 127.723C264.3 127.723 267.5 130.833 267.5 134.745V158.921H283.2C287.1 158.921 290.2 162.031 290.2 165.943C290.2 169.856 287.1 172.966 283.2 172.966Z" fill="#243762"/>
<path d="M100.1 194.133L212.8 307.289C234.9 329.359 270.6 329.359 292.7 307.289L306.2 293.747C311.3 288.63 311.3 280.405 306.2 275.288L260.2 229.143C255.1 224.027 246.8 224.027 241.7 229.143L218.7 252.216C216.9 254.021 214 254.021 212.2 252.216L156.4 196.239C154.6 194.434 154.6 191.524 156.4 189.719L179.1 167.047C184.2 161.931 184.2 153.605 179.1 148.489L131.9 101.139C126.8 96.1236 118.7 96.0233 113.6 100.939L100.8 113.378C78.0999 135.347 77.8 171.762 100.1 194.133Z" fill="#243762"/>
<path d="M103.6 115.685L167 179.185L169.1 176.978L179.1 167.047C184.2 161.931 184.2 153.605 179.1 148.489L131.9 101.139C126.8 96.1236 118.7 96.0233 113.6 100.939L100.8 113.378L103.6 115.685Z" fill="#ECF1F7"/>
<path fill-rule="evenodd" clip-rule="evenodd" d="M167 180.59L102.9 116.387L99.2999 113.478L112.9 100.236C118.4 94.9197 127.2 95.02 132.6 100.437L179.8 147.786C185.3 153.304 185.3 162.232 179.8 167.749L167 180.59ZM102.3 113.278L104.4 114.883L167 177.681L178.5 166.245C180.7 163.937 182 160.928 182 157.718C182 154.508 180.7 151.498 178.5 149.191L131.2 101.741C126.6 97.1266 119 97.1266 114.3 101.641L102.3 113.278Z" fill="#243762"/>
<path d="M232.5 242.786L295.8 306.286L298 304.079L308 294.148C313.1 289.032 313.1 280.705 308 275.589L260.7 228.24C255.7 223.224 247.6 223.124 242.5 228.039L229.7 240.479L232.5 242.786Z" fill="#ECF1F7"/>
<path fill-rule="evenodd" clip-rule="evenodd" d="M295.8 307.69L231.8 243.488L228.2 240.579L241.8 227.337C247.2 222.02 256.1 222.121 261.4 227.538L308.7 274.887C311.3 277.595 312.8 281.107 312.8 284.919C312.8 288.63 311.3 292.141 308.7 294.85L295.8 307.69ZM231.1 240.378L233.1 241.983L295.8 304.781L307.2 293.345C309.5 291.038 310.7 288.028 310.7 284.818C310.7 281.608 309.5 278.599 307.2 276.291L260 228.842C255.4 224.227 247.8 224.227 243.1 228.741L231.1 240.378Z" fill="#243762"/>
<path d="M108.5 108.161L147.1 146.883L108.5 108.161Z" fill="#ECF1F7"/>
<path d="M147.1 147.887C146.833 147.887 146.6 147.786 146.4 147.586L107.8 108.864C107.4 108.462 107.4 107.86 107.8 107.459C108.2 107.058 108.8 107.058 109.2 107.459L147.8 146.181C148.2 146.582 148.2 147.184 147.8 147.586C147.6 147.786 147.367 147.887 147.1 147.887Z" fill="#243762"/>
<path d="M262 262.147L300.6 300.869L262 262.147Z" fill="#ECF1F7"/>
<path d="M300.6 301.872C300.333 301.872 300.1 301.772 299.9 301.571L261.3 262.849C260.9 262.448 260.9 261.846 261.3 261.445C261.7 261.043 262.3 261.043 262.7 261.445L301.3 300.167C301.7 300.568 301.7 301.17 301.3 301.571C301.1 301.772 300.867 301.872 300.6 301.872Z" fill="#243762"/>
<path d="M470 499.896L322.2 477.927C305.5 475.419 294 459.87 296.4 443.117L349.4 83.584C351.9 66.8311 367.5 55.1945 384.2 57.7024L532 79.6716C548.7 82.0792 560.2 97.7286 557.7 114.481L504.7 474.015C502.3 490.768 486.7 502.304 470 499.896Z" fill="#243762"/>
<path d="M494.4 457.964L310.9 430.779L361 91.3083L544.5 118.494L494.4 457.964Z" fill="#ECF1F7"/>
<path d="M540.7 143.974L357.2 116.789L361 91.3083L544.5 118.494L540.7 143.974Z" fill="#AF9CDA"/>
<path fill-rule="evenodd" clip-rule="evenodd" d="M399.6 477.426C399 477.426 398.4 477.392 397.8 477.325C394.6 476.824 391.8 475.219 389.9 472.611C388 470.002 387.2 466.892 387.7 463.682C388.2 460.472 389.9 457.764 392.4 455.757C395 453.851 398.2 453.049 401.3 453.55C404.5 454.052 407.3 455.757 409.2 458.265C411.1 460.874 411.9 464.084 411.4 467.193C410.5 473.212 405.4 477.426 399.6 477.426ZM399.5 455.456C397.4 455.456 395.4 456.159 393.6 457.463C391.5 458.967 390.1 461.375 389.7 463.983C389.3 466.592 390 469.3 391.5 471.407C393.1 473.513 395.5 474.918 398.1 475.319C403.5 476.122 408.6 472.41 409.4 466.892C409.8 464.284 409.2 461.676 407.6 459.469C406 457.362 403.7 455.958 401 455.557C400.533 455.49 400.033 455.456 399.5 455.456Z" fill="#ECF1F7"/>
<path fill-rule="evenodd" clip-rule="evenodd" d="M426.1 87.9979C425.9 87.9979 425.7 87.9979 425.5 87.9979C424.5 87.7973 423.6 87.2957 423 86.4932C422.4 85.6907 422.1 84.5872 422.3 83.584C422.4 82.5809 423 81.678 423.8 81.0761C424.6 80.4742 425.6 80.1733 426.6 80.3739C427.7 80.4742 428.6 81.0761 429.2 81.8787C429.8 82.6812 430 83.6843 429.9 84.6875C429.6 86.6938 428 87.9979 426.1 87.9979ZM426.1 82.2799C425.7 82.2799 425.333 82.4137 425 82.6812C424.6 82.9821 424.3 83.3834 424.2 83.885C424.2 84.3866 424.3 84.8881 424.6 85.2894C424.9 85.6907 425.3 85.8913 425.8 85.9916C426.3 86.0919 426.8 85.9916 427.2 85.6907C427.6 85.3897 427.8 84.8881 427.9 84.4869C428 83.9853 427.9 83.4837 427.6 83.0824C427.3 82.6812 426.8 82.3802 426.4 82.3802C426.267 82.3134 426.167 82.2799 426.1 82.2799Z" fill="#ECF1F7"/>
<path fill-rule="evenodd" clip-rule="evenodd" d="M485.7 96.8258C485.5 96.8258 485.3 96.8258 485.1 96.8258L438.3 89.904C437.3 89.7033 436.4 89.2017 435.8 88.3992C435.2 87.4964 434.9 86.4932 435.1 85.49C435.2 84.4869 435.7 83.584 436.6 82.9821C437.4 82.3802 438.4 82.0793 439.4 82.2799L486.2 89.2017C487.3 89.3021 488.2 89.9039 488.8 90.7065C489.4 91.509 489.6 92.5122 489.5 93.6156C489.3 94.6188 488.8 95.5217 488 96.1236C487.3 96.6251 486.5 96.8258 485.7 96.8258ZM438.9 84.1859C438 84.1859 437.2 84.8881 437 85.791C437 86.2926 437.1 86.7941 437.4 87.1954C437.7 87.5967 438.1 87.7973 438.6 87.8976L485.4 94.8195C486.4 95.0201 487.4 94.3179 487.5 93.3147C487.6 92.8131 487.5 92.3116 487.2 91.9103C486.9 91.509 486.4 91.2081 485.9 91.2081L439.1 84.1859C439.033 84.1859 438.967 84.1859 438.9 84.1859Z" fill="#ECF1F7"/>
<path d="M495.2 354.137L367.2 335.077C365.1 334.776 363.1 336.281 362.8 338.387L357.9 371.692C357.6 373.799 359.1 375.705 361.1 376.006L470.6 392.257L481.9 407.806L483.9 394.264L489.1 394.966C491.2 395.267 493.2 393.862 493.5 391.756L498.4 358.451C498.7 356.344 497.3 354.438 495.2 354.137Z" fill="#C5D9FF"/>
<path d="M470.6 393.26C470.533 393.26 470.467 393.26 470.4 393.26L361 377.009C359.7 376.809 358.6 376.106 357.8 375.103C357.1 374.1 356.7 372.796 356.9 371.492L361.8 338.187C362.2 335.579 364.7 333.673 367.3 334.174L396.9 338.488C397.4 338.588 397.8 339.09 397.7 339.692C397.7 340.193 397.1 340.594 396.6 340.494L367 336.08C365.5 335.88 364.1 336.983 363.8 338.488L358.9 371.793C358.8 372.595 359 373.297 359.4 373.899C359.9 374.501 360.5 374.903 361.3 375.003L470.7 391.254C471.3 391.354 471.6 391.856 471.6 392.358C471.5 392.859 471.1 393.26 470.6 393.26Z" fill="#243762"/>
<path d="M515.5 216.102L387.5 197.042C385.4 196.741 383.5 198.246 383.2 200.352L378.3 233.657C378 235.764 379.4 237.67 381.5 237.971L490.9 254.222L502.2 269.771L504.2 256.228L509.5 256.931C511.6 257.232 513.5 255.827 513.8 253.72L518.7 220.415C519 218.309 517.6 216.403 515.5 216.102Z" fill="#C5D9FF"/>
<path d="M502.8 272.379L490.4 255.125L381.3 238.974C378.7 238.573 376.9 236.065 377.3 233.457C377.4 232.955 377.9 232.554 378.4 232.654C379 232.754 379.3 233.256 379.3 233.757C379.2 234.56 379.3 235.262 379.8 235.864C380.2 236.466 380.9 236.867 381.6 236.968L491.5 253.319L501.6 267.263L503.4 255.025L509.6 255.927C510.4 256.128 511.1 255.927 511.7 255.426C512.3 255.025 512.7 254.322 512.8 253.62L516.1 231.45C516.2 230.848 516.7 230.547 517.2 230.547C517.8 230.648 518.2 231.149 518.1 231.751L514.8 253.921C514.6 255.125 514 256.329 512.9 257.031C511.9 257.833 510.6 258.134 509.4 257.934L505.1 257.332L502.8 272.379Z" fill="#243762"/>
<path d="M353.5 259.037L481.5 277.997C483.6 278.298 485 280.204 484.7 282.311L479.8 315.616C479.5 317.722 477.6 319.227 475.5 318.926L366 302.675L350.7 314.311L352.8 300.668L347.5 299.866C345.4 299.565 343.9 297.659 344.3 295.552L349.2 262.247C349.5 260.141 351.4 258.736 353.5 259.037Z" fill="#AF9CDA"/>
<path d="M476 319.929C475.8 319.929 475.567 319.896 475.3 319.829L407 309.697C406.5 309.697 406.1 309.095 406.2 308.593C406.3 308.092 406.8 307.69 407.3 307.791L475.6 317.923C476.4 318.023 477.1 317.822 477.7 317.321C478.3 316.92 478.7 316.217 478.8 315.515L483.7 282.21C484 280.605 482.9 279.201 481.4 279C480.8 278.9 480.4 278.398 480.5 277.896C480.6 277.295 481.1 276.893 481.7 276.994C484.3 277.395 486.1 279.802 485.7 282.511L480.8 315.816C480.6 317.12 479.9 318.224 478.9 318.926C478.1 319.628 477.1 319.929 476 319.929Z" fill="#243762"/>
<path d="M494.4 457.964L310.9 430.779L315.5 399.48L499 426.766L494.4 457.964Z" fill="white"/>
<path d="M342.6 419.242C341.7 425.361 336 429.575 329.9 428.672C323.8 427.769 319.6 422.051 320.5 415.932C321.4 409.812 327.1 405.599 333.2 406.502C339.3 407.405 343.5 413.123 342.6 419.242Z" fill="#C5D9FF"/>
<path opacity="0.3" fill-rule="evenodd" clip-rule="evenodd" d="M477.9 449.538C477.433 449.538 476.967 449.504 476.5 449.437L357.6 431.782C354.9 431.38 352.6 430.076 351 427.869C349.4 425.763 348.8 423.154 349.2 420.446C350 415.029 355 411.217 360.5 412.019L479.4 429.675C484.8 430.478 488.6 435.594 487.8 441.011C487 446.027 482.8 449.538 477.9 449.538ZM476.8 447.431C481.1 448.133 485.2 445.124 485.8 440.71C486.1 438.603 485.6 436.497 484.3 434.791C483 433.086 481.2 431.982 479.1 431.681L360.2 414.026C355.8 413.424 351.8 416.433 351.1 420.747C350.8 422.854 351.4 424.96 352.6 426.666C353.9 428.371 355.7 429.474 357.8 429.876L476.8 447.431Z" fill="#AF9CDA"/>
<path fill-rule="evenodd" clip-rule="evenodd" d="M372.4 109.566C372.2 109.566 372 109.566 371.8 109.566C369.7 109.265 368.2 107.259 368.5 105.052C368.7 104.049 369.2 103.146 370.1 102.544C370.9 101.842 371.9 101.641 373 101.741C375.1 102.042 376.6 104.049 376.3 106.255C376 108.162 374.3 109.566 372.4 109.566ZM372.4 103.748C372 103.748 371.6 103.881 371.2 104.149C370.8 104.45 370.6 104.851 370.5 105.353C370.4 105.854 370.5 106.356 370.8 106.757C371.2 107.259 371.6 107.459 372.1 107.56C373.1 107.76 374.1 106.958 374.3 105.955C374.4 105.453 374.2 104.951 373.9 104.55C373.6 104.049 373.2 103.848 372.7 103.748C372.567 103.748 372.467 103.748 372.4 103.748Z" fill="white"/>
<path fill-rule="evenodd" clip-rule="evenodd" d="M383.2 111.171C383 111.171 382.8 111.171 382.6 111.171C380.5 110.87 379 108.864 379.3 106.657C379.7 104.55 381.6 103.045 383.8 103.346C384.8 103.547 385.7 104.048 386.4 104.951C387 105.754 387.2 106.757 387.1 107.86C386.9 108.864 386.4 109.766 385.5 110.368C384.9 110.97 384.1 111.171 383.2 111.171ZM383.2 105.353C382.3 105.353 381.5 106.055 381.3 106.958C381.2 107.459 381.4 107.961 381.7 108.362C382 108.864 382.4 109.064 382.9 109.165C383.4 109.265 383.9 109.064 384.4 108.763C384.8 108.462 385 108.061 385.1 107.559C385.2 107.058 385.1 106.556 384.7 106.155C384.4 105.754 384 105.453 383.5 105.353C383.367 105.353 383.267 105.353 383.2 105.353Z" fill="white"/>
<path fill-rule="evenodd" clip-rule="evenodd" d="M393.8 112.776C393.6 112.776 393.433 112.743 393.3 112.676C391.1 112.375 389.6 110.368 390 108.262C390.3 106.155 392.3 104.65 394.4 104.951C396.5 105.252 398 107.259 397.7 109.365C397.4 111.372 395.7 112.776 393.8 112.776ZM393.8 106.958C393.4 106.958 393.033 107.058 392.7 107.259C392.3 107.56 392 108.061 391.9 108.563C391.9 109.064 392 109.566 392.3 109.967C392.6 110.369 393 110.669 393.5 110.77C394.6 110.87 395.6 110.168 395.7 109.165C395.9 108.061 395.2 107.058 394.1 106.958C394.033 106.958 393.933 106.958 393.8 106.958Z" fill="white"/>
<path d="M543.2 145.379C543.133 145.379 543.1 145.379 543.1 145.379L373.2 120.099C372.7 120.099 372.3 119.497 372.4 118.996C372.4 118.494 372.9 118.093 373.5 118.193L543.3 143.372C543.9 143.473 544.3 143.974 544.2 144.476C544.1 144.977 543.7 145.379 543.2 145.379Z" fill="#243762"/>
<path d="M472.4 361.761C472.333 361.761 472.267 361.761 472.2 361.761L381.6 348.319C381.1 348.218 380.7 347.717 380.8 347.215C380.9 346.613 381.4 346.212 381.9 346.312L472.5 359.755C473.1 359.855 473.5 360.357 473.4 360.958C473.3 361.46 472.9 361.761 472.4 361.761Z" fill="white"/>
<path d="M418.7 364.871C418.7 364.871 418.667 364.871 418.6 364.871L380 359.153C379.5 359.052 379.1 358.551 379.2 358.049C379.3 357.447 379.8 357.146 380.3 357.146L418.9 362.965C419.4 362.965 419.8 363.466 419.7 364.068C419.7 364.57 419.2 364.871 418.7 364.871Z" fill="white"/>
<path d="M405.7 373.398C405.7 373.398 405.667 373.364 405.6 373.297L378.5 369.285C378 369.285 377.6 368.783 377.7 368.181C377.8 367.68 378.3 367.278 378.8 367.379L405.9 371.391C406.4 371.492 406.8 371.993 406.7 372.495C406.7 372.997 406.2 373.398 405.7 373.398Z" fill="white"/>
<path d="M470.8 372.595C470.733 372.595 470.667 372.595 470.6 372.595L430.8 366.676C430.2 366.676 429.9 366.074 429.9 365.573C430 365.071 430.5 364.67 431.1 364.77L470.9 370.689C471.5 370.689 471.9 371.191 471.8 371.792C471.7 372.294 471.3 372.595 470.8 372.595Z" fill="white"/>
<path d="M461.3 286.323C461.3 286.323 461.267 286.323 461.2 286.323L370.6 272.881C370 272.781 369.6 272.279 369.7 271.777C369.8 271.175 370.3 270.774 370.8 270.874L461.5 284.317C462 284.417 462.4 284.919 462.3 285.521C462.2 286.022 461.8 286.323 461.3 286.323Z" fill="white"/>
<path d="M407.7 289.433C407.633 289.433 407.567 289.433 407.5 289.433L369 283.715C368.4 283.615 368 283.113 368.1 282.612C368.2 282.01 368.7 281.709 369.2 281.709L407.8 287.427C408.4 287.527 408.7 288.029 408.7 288.631C408.6 289.132 408.2 289.433 407.7 289.433Z" fill="white"/>
<path d="M447.8 305.785C447.733 305.785 447.667 305.785 447.6 305.785L369.4 293.646C368.8 293.546 368.5 293.044 368.5 292.443C368.6 291.941 369.1 291.54 369.7 291.64L447.9 303.778C448.5 303.879 448.8 304.38 448.7 304.982C448.7 305.484 448.2 305.785 447.8 305.785Z" fill="white"/>
<path d="M459.7 297.157C459.7 297.157 459.667 297.157 459.6 297.157L419.7 291.239C419.2 291.138 418.8 290.637 418.9 290.135C419 289.533 419.5 289.232 420 289.232L459.9 295.151C460.4 295.251 460.8 295.753 460.7 296.355C460.6 296.856 460.2 297.157 459.7 297.157Z" fill="white"/>
<path d="M369.9 133.742L497.9 152.802C500 153.103 501.5 155.009 501.2 157.116L496.2 190.421C495.9 192.527 494 193.932 491.9 193.631L382.5 177.38L367.2 189.016L369.2 175.474L363.9 174.671C361.8 174.37 360.4 172.364 360.7 170.257L365.6 136.952C365.9 134.946 367.9 133.441 369.9 133.742Z" fill="#AF9CDA"/>
<path d="M496.2 191.424C496.2 191.424 496.167 191.424 496.1 191.424C495.6 191.324 495.2 190.822 495.3 190.32L500.2 156.915C500.3 156.213 500.1 155.511 499.6 154.909C499.2 154.307 498.5 153.906 497.8 153.705L418.3 141.968C417.8 141.868 417.4 141.366 417.5 140.864C417.6 140.263 418.1 139.861 418.6 139.962L498.1 151.799C499.4 152 500.5 152.601 501.3 153.705C502 154.708 502.3 156.012 502.1 157.216L497.2 190.521C497.2 191.023 496.7 191.424 496.2 191.424Z" fill="#243762"/>
<path d="M477.8 161.129C477.733 161.129 477.667 161.129 477.6 161.129L387 147.686C386.4 147.586 386.1 147.084 386.1 146.482C386.2 145.981 386.7 145.579 387.3 145.68L477.9 159.122C478.5 159.223 478.8 159.724 478.8 160.226C478.7 160.727 478.3 161.129 477.8 161.129Z" fill="white"/>
<path d="M424.1 164.238C424.033 164.238 424 164.238 424 164.238L385.4 158.52C384.8 158.42 384.5 157.918 384.5 157.317C384.6 156.815 385.1 156.414 385.7 156.514L424.3 162.232C424.8 162.332 425.2 162.834 425.1 163.336C425 163.837 424.6 164.238 424.1 164.238Z" fill="white"/>
<path d="M464.2 180.59C464.133 180.59 464.067 180.59 464 180.59L385.8 168.351C385.3 168.251 384.9 167.749 385 167.248C385.1 166.646 385.6 166.345 386.1 166.345L464.3 178.584C464.9 178.684 465.3 179.185 465.2 179.687C465.1 180.189 464.7 180.59 464.2 180.59Z" fill="white"/>
<path d="M476.2 171.963C476.133 171.963 476.067 171.963 476 171.963L436.2 166.044C435.6 165.944 435.2 165.442 435.3 164.94C435.4 164.339 435.9 163.937 436.4 164.038L476.3 169.956C476.9 170.057 477.2 170.558 477.2 171.06C477.1 171.561 476.7 171.963 476.2 171.963Z" fill="white"/>
<path d="M492.8 225.03C492.8 225.03 492.767 225.03 492.7 225.03L402 211.587C401.5 211.487 401.1 210.986 401.2 210.384C401.3 209.882 401.8 209.481 402.3 209.581L493 223.024C493.5 223.124 493.9 223.625 493.8 224.127C493.7 224.629 493.3 225.03 492.8 225.03Z" fill="white"/>
<path d="M439.2 228.14C439.133 228.14 439.067 228.14 439 228.14L400.5 222.422C399.9 222.321 399.5 221.82 399.6 221.318C399.7 220.716 400.2 220.315 400.7 220.415L439.3 226.133C439.9 226.234 440.2 226.735 440.2 227.337C440.1 227.839 439.7 228.14 439.2 228.14Z" fill="white"/>
<path d="M426.2 236.566C426.133 236.566 426.067 236.566 426 236.566L399 232.554C398.4 232.453 398 231.952 398.1 231.45C398.2 230.848 398.7 230.547 399.2 230.547L426.3 234.56C426.9 234.66 427.2 235.162 427.2 235.764C427.1 236.265 426.7 236.566 426.2 236.566Z" fill="white"/>
<path d="M491.2 235.864C491.2 235.864 491.167 235.864 491.1 235.864L451.2 229.945C450.7 229.845 450.3 229.343 450.4 228.842C450.5 228.24 451 227.839 451.5 227.939L491.4 233.858C491.9 233.958 492.3 234.46 492.2 235.061C492.1 235.563 491.7 235.864 491.2 235.864Z" fill="white"/>
<path d="M308.5 468.999L103.2 492.172C99.3 492.674 95.7 489.865 95.3 485.852L80.5 353.936C80.4 353.736 80.6 353.535 80.8 353.535L299.6 328.757C299.8 328.757 300 328.857 300 329.158L314.8 461.074C315.3 464.986 312.5 468.598 308.5 468.999Z" fill="#F7A9B4"/>
<path fill-rule="evenodd" clip-rule="evenodd" d="M102.4 493.275C98.3 493.275 94.8 490.166 94.3 485.952L79.5 354.037C79.4 353.234 79.9 352.632 80.7 352.532L299.5 327.754C300.2 327.653 300.9 328.255 301 328.957L315.8 460.974C316.1 463.181 315.5 465.287 314.1 466.993C312.7 468.698 310.8 469.801 308.7 470.002L103.3 493.175C103.033 493.242 102.733 493.275 102.4 493.275ZM81.5 354.438L96.3 485.752C96.7 489.163 99.7 491.67 103.1 491.269L308.4 467.996C310.1 467.795 311.5 466.993 312.5 465.789C313.6 464.485 314 462.88 313.8 461.174L299.1 329.86L81.5 354.438Z" fill="#243762"/>
<path opacity="0.3" d="M298.9 468.999L113.3 492.172C109.3 492.674 170.8 413.524 170.4 409.612L80.5 353.936C80.4 353.736 80.6 353.535 80.8 353.535L299.6 328.757C299.8 328.757 300 328.857 300 329.158L225.2 403.392C225.6 407.305 302.8 468.598 298.9 468.999Z" fill="#243762"/>
<path d="M80.7999 353.535L171.3 263.752C176.7 258.335 185 257.432 191.5 261.445L299 328.456C299.2 328.556 299.2 328.857 298.9 328.857L80.3999 353.535" fill="#F7A9B4"/>
<path fill-rule="evenodd" clip-rule="evenodd" d="M80.5 354.538L80.4 353.033L80.1 352.833L80.3 352.532L170.6 263.05C176.3 257.332 185.1 256.329 192 260.542L299.6 327.553C300 327.854 300.2 328.356 300.1 328.857C300 329.359 299.6 329.76 299.1 329.86L80.5 354.538ZM182.8 259.94C178.8 259.94 174.9 261.445 171.9 264.454L83.5 352.131L296.5 328.055L190.9 262.247C188.4 260.743 185.6 259.94 182.8 259.94Z" fill="#243762"/>
<path opacity="0.3" d="M80.7999 353.535L171.3 263.752C176.7 258.335 185 257.432 191.5 261.445L299 328.456C299.2 328.556 299.2 328.857 298.9 328.857L80.3999 353.535" fill="#243762"/>
<path d="M181.3 395.768L113.3 490.667L298.9 469.701L211.6 392.357C202.4 384.332 188.4 385.837 181.3 395.768Z" fill="#F7A9B4"/>
<path fill-rule="evenodd" clip-rule="evenodd" d="M111.1 491.971L180.5 395.166C184 390.251 189.5 387.041 195.6 386.338C201.6 385.636 207.7 387.542 212.2 391.555L301.3 470.504L111.1 491.971ZM197.9 388.144C197.167 388.144 196.433 388.211 195.7 388.345C190.2 388.947 185.2 391.856 182 396.37L115.3 489.463L296.5 468.999L210.8 393.06C207.2 389.95 202.6 388.144 197.9 388.144Z" fill="#243762"/>
<path d="M91.7999 288.43L234.8 272.279C244.2 271.276 252.6 276.994 253.5 285.22L262.7 366.977L222.9 403.693L170.4 409.612L118.5 377.009L109.5 297.759L91.7999 288.43Z" fill="white"/>
<path fill-rule="evenodd" clip-rule="evenodd" d="M170.1 410.615L117.5 377.611L108.6 298.361L101.2 292.242L110.5 297.157L119.4 376.407L170.6 408.609L222.5 402.69L261.6 366.576L252.5 285.32C252.1 281.608 250 278.398 246.8 276.091C243.4 273.784 239.3 272.78 235 273.282L97.1 288.931L95 287.126L234.7 271.276C239.5 270.774 244.2 271.878 247.9 274.486C251.7 277.094 254 280.806 254.5 285.019L263.7 367.379L223.3 404.596L170.1 410.615ZM95.2 289.132L101.2 292.242L97.2 288.931L95.2 289.132Z" fill="#243762"/>
<path opacity="0.3" d="M181.3 387.542L113.3 490.668L298.9 469.701L211.6 384.132C202.4 376.106 188.4 377.711 181.3 387.542Z" fill="#243762"/>
<path d="M181.3 395.768L113.3 490.667L298.9 469.701L211.6 392.357C202.4 384.332 188.4 385.837 181.3 395.768Z" fill="#F7A9B4"/>
<path fill-rule="evenodd" clip-rule="evenodd" d="M111.1 491.971L180.5 395.166C184 390.251 189.5 387.041 195.6 386.338C201.6 385.636 207.7 387.542 212.2 391.555L301.3 470.504L111.1 491.971ZM197.9 388.144C197.167 388.144 196.433 388.211 195.7 388.345C190.2 388.947 185.2 391.856 182 396.37L115.3 489.463L296.5 468.999L210.8 393.06C207.2 389.95 202.6 388.144 197.9 388.144Z" fill="#243762"/>
<path opacity="0.3" d="M187.9 416.835L137.9 486.454L274.3 471.106L210.1 414.226C203.4 408.308 193.1 409.512 187.9 416.835Z" fill="#ECF1F7"/>
<path d="M80.8999 353.635L170.4 409.612L80.8999 353.635Z" fill="#F7A9B4"/>
<path d="M169.8 410.515L80.3999 354.538L81.3999 352.833L170.9 408.809L169.8 410.515Z" fill="#243762"/>
<path d="M300 328.958L225.2 403.392L300 328.958Z" fill="#F7A9B4"/>
<path d="M225.9 404.095L224.5 402.69L299.3 328.255L300.7 329.66L225.9 404.095Z" fill="#243762"/>
<path d="M113.5 334.274L88.4999 337.083L84.4999 301.371C83.7999 294.85 88.5 288.831 95.1 288.129L96.1999 287.928C102.8 287.226 108.8 291.941 109.5 298.562L113.5 334.274Z" fill="#ECF1F7"/>
<path fill-rule="evenodd" clip-rule="evenodd" d="M87.6999 338.187L83.4999 301.471C83.1999 298.06 84.0999 294.649 86.2999 291.941C88.4999 289.232 91.4999 287.527 94.9999 287.126L96.0999 287.025C99.5999 286.624 103 287.527 105.7 289.734C108.4 291.941 110.1 295.051 110.5 298.461L114.6 335.177L87.6999 338.187ZM97.6999 288.831C97.2332 288.831 96.7999 288.865 96.3999 288.931L95.2999 289.032C92.2999 289.433 89.6999 290.837 87.8999 293.145C86.0999 295.452 85.1999 298.361 85.5999 301.27L89.4999 335.98L112.4 333.372L108.5 298.662C108.2 295.753 106.8 293.145 104.5 291.239C102.5 289.734 100.1 288.831 97.6999 288.831Z" fill="#243762"/>
<path d="M130.5 315.716C129.9 315.716 129.5 315.315 129.5 314.813C129.4 314.211 129.8 313.81 130.3 313.709L233.9 301.972C234.5 301.972 235 302.374 235.1 302.875C235.1 303.477 234.7 303.878 234.2 303.979L130.6 315.716C130.533 315.716 130.5 315.716 130.5 315.716Z" fill="#243762"/>
<path d="M134.4 351.027C133.9 351.027 133.5 350.626 133.4 350.124C133.4 349.623 133.8 349.121 134.3 349.021L237.9 337.284C238.5 337.284 239 337.685 239 338.187C239.1 338.788 238.7 339.29 238.1 339.29L134.5 351.027C134.5 351.027 134.467 351.027 134.4 351.027Z" fill="#243762"/>
<path d="M132.4 333.171C131.9 333.171 131.5 332.77 131.4 332.268C131.4 331.766 131.8 331.265 132.3 331.165L177.1 326.149C177.6 326.048 178.1 326.45 178.2 326.951C178.2 327.553 177.8 328.055 177.3 328.055L132.5 333.171C132.5 333.171 132.467 333.171 132.4 333.171Z" fill="#243762"/>
<path d="M188.9 326.751C188.4 326.751 188 326.45 187.9 325.848C187.9 325.346 188.2 324.845 188.8 324.744L235.9 319.427C236.5 319.427 237 319.829 237 320.33C237.1 320.932 236.7 321.434 236.1 321.434L189 326.751C189 326.751 188.967 326.751 188.9 326.751Z" fill="#243762"/>
<path d="M136.7 371.09C136.2 371.09 135.7 370.689 135.7 370.188C135.6 369.586 136 369.184 136.6 369.084L181.3 363.968C181.9 363.968 182.4 364.369 182.4 364.871C182.5 365.473 182.1 365.974 181.6 365.974L136.8 371.09C136.733 371.09 136.7 371.09 136.7 371.09Z" fill="#243762"/>
</svg>
