<svg width="35" height="43" viewBox="0 0 35 43" fill="none" xmlns="http://www.w3.org/2000/svg">
<path d="M24.3962 30.5978L24.396 30.5977C24.1127 30.4262 23.8755 30.2957 23.6468 30.17C23.5428 30.1128 23.4406 30.0565 23.3366 29.9978C23.0328 29.8264 22.6927 29.6229 22.4064 29.3407C21.7424 28.6863 21.5871 27.844 21.5871 26.7389V26.7346V26.7304V26.7261V26.7218V26.7175V26.7132V26.7088V26.7045V26.7001V26.6957V26.6913V26.6869V26.6825V26.6781V26.6736V26.6691V26.6647V26.6602V26.6557V26.6511V26.6466V26.6421V26.6375V26.6329V26.6283V26.6237V26.6191V26.6145V26.6099V26.6052V26.6005V26.5959V26.5912V26.5865V26.5818V26.577V26.5723V26.5675V26.5627V26.558V26.5532V26.5483V26.5435V26.5387V26.5338V26.529V26.5241V26.5192V26.5143V26.5094V26.5045V26.4995V26.4946V26.4896V26.4847V26.4797V26.4747V26.4697V26.4646V26.4596V26.4545V26.4495V26.4444V26.4393V26.4342V26.4291V26.424V26.4189V26.4137V26.4086V26.4034V26.3982V26.393V26.3878V26.3826V26.3774V26.3721V26.3669V26.3616V26.3563V26.351V26.3457V26.3404V26.3351V26.3298V26.3244V26.3191V26.3137V26.3083V26.3029V26.2975V26.2921V26.2867V26.2812V26.2758V26.2703V26.2649V26.2594V26.2539V26.2484V26.2429V26.2373V26.2318V26.2263V26.2207V26.2151V26.2096V26.204V26.1984V26.1928V26.1871V26.1815V26.1759V26.1702V26.1645V26.1589V26.1532V26.1475V26.1418V26.1361V26.1303V26.1246V26.1188V26.1131V26.1073V26.1015V26.0957V26.0899V26.0841V26.0783V26.0725V26.0667V26.0608V26.0549V26.0491V26.0432V26.0373V26.0314V26.0255V26.0196V26.0137V26.0077V26.0018V25.9958V25.9899V25.9839V25.9779V25.9719V25.9659V25.9599V25.9539V25.9478V25.9418V25.9357V25.9297V25.9236V25.9175V25.9114V25.9054V25.8992V25.8931V25.887V25.8809V25.8747V25.8686V25.8624V25.8563V25.8501V25.8439V25.8377V25.8315V25.8253V25.8191V25.8128V25.8066V25.8004V25.7941V25.7878V25.7816V25.7753V25.769V25.7627V25.7564V25.7501V25.7438V25.7374V25.7311V25.7248V25.7184V25.712V25.7057V25.6993V25.6929V25.6865V25.6801V25.6737V25.6673V25.6609V25.6544V25.648V25.6415V25.6351V25.6286V25.6221V25.6157V25.6092V25.6027V25.5962V25.5897V25.5831V25.5766V25.5701V25.5635V25.557V25.5504V25.5439V25.5373V25.5307V25.5242V25.5176V25.511V25.5044V25.4978V25.4911V25.4845V25.4779V25.4712V25.4646V25.4579V25.4513V25.4446V25.4379V25.4313V25.4246V25.4179V25.4112V25.4045V25.3978V25.391V25.3843V25.3776V25.3708V25.3641V25.3574V25.3506V25.3438V25.3371V25.3303V25.3235V25.3167V25.3099V25.3031V25.2963V25.2895V25.2827V25.2759V25.269V25.2622V25.2553V25.2485V25.2416V25.2348V25.2279V25.221V25.2142V25.2073V25.2004V25.1935V25.1866V25.1797V25.1728V25.1659V25.1589V25.152V25.1451V25.1382V25.1312V25.1243V25.1173V25.1104V25.1034V25.0964V25.0894V25.0825V25.0755V25.0685V25.0615V25.0545V25.0475V25.0405V25.0335V25.0265V25.0194V25.0124V25.0054V24.9983V24.9913V24.9843V24.9772V24.9702V24.9631V24.956V24.949V24.9419V24.9348V24.9277V24.9206V24.9136V24.9065V24.8994V24.8923V24.8852V24.878V24.8709V24.8638V24.8567V24.8496V24.8424V24.8353V24.8282V24.821V24.8139V24.8067V24.7996V24.7924V24.7852V24.7781V24.7709V24.7637V24.7566V24.7494V24.7422V24.735V24.7278V24.7206V24.7134V24.7062V24.699V24.6918V24.6846V24.6774V24.6702V24.663V24.6558V24.6485V24.6413V24.6341V24.6268V24.6196V24.6124V24.6051V24.5979V24.5906V24.5834V24.5761V24.5689V24.5616V24.5543V24.5471V24.5398V24.5325V24.5253V24.518V24.5107V24.5034V24.4961V24.4889V24.4816V24.4743V24.467V24.4597V24.4524V24.4451V24.4378V24.4305V24.4232V24.4159V24.4086V24.4013V24.394V24.3867V24.3793V24.372V24.3647V24.3574V24.3501V24.3427V24.3354V24.3281V24.3208V24.3134V24.3061V24.2988V24.2914V24.2841V24.2767V24.2694V24.2621V24.2547V24.2474V24.24V24.2327V24.2253V24.218V24.2106V24.2033V24.1959V24.1886V24.1812V24.1739V24.1665V24.1592V24.1518V24.1445V24.1371V24.1297V24.1224V24.115V24.1076V24.1003V24.0929V24.0856V24.0782V24.0708V24.0635V24.0561V24.0487V24.0414V24.034V24.0266V24.0193V24.0119V24.0045V23.9972V23.9898V23.9824V23.9751V23.9677V23.9603V23.953V23.9456V23.9382V23.9309V23.9235V23.9161V23.9087V23.9014V23.894V23.8866V23.8793V23.8719V23.8645V23.8572V23.8498V23.8425V23.8351V23.8277V23.8204V23.813V23.8056V23.7983V23.7909V23.7836V23.7762V23.7688V23.7615V23.7541V23.7468V23.7394V23.7321V23.7247V23.7174V23.71V23.7027V23.6953V23.688V23.6806V23.6733V23.666V23.6586V23.6513V23.6439V23.6366V23.6293V23.6219V23.6146V23.6073V23.5999V23.5926V23.5853V23.578V23.5706V23.5633V23.556V23.5487V23.5414V23.534V23.5267V23.5194V23.5121V23.5048V23.4975V23.4902V23.4829V23.4756V23.4683V23.461V23.4537V23.4464V23.4392V23.4319V23.4246V23.0384L21.8467 22.7524C22.0285 22.5522 22.1668 22.4104 22.2777 22.2967C22.5221 22.046 22.6336 21.9317 22.7851 21.6283C23.0192 21.1596 23.2834 20.3013 23.6822 18.2618L23.8402 17.4537H24.6636C24.8198 17.4537 24.859 17.4159 24.8894 17.3862C24.9566 17.3205 25.0552 17.1728 25.1719 16.8492C25.2693 16.5791 25.3508 16.274 25.4507 15.8999C25.4704 15.8263 25.4907 15.7501 25.5121 15.671C25.6354 15.2133 25.7847 14.6866 26.0003 14.164L26.0004 14.1637C26.2603 13.5345 26.2077 13.2655 26.1883 13.2044C26.1775 13.1705 26.1619 13.1394 26.0746 13.0977L25.4541 12.8022L25.5076 12.1171C25.7246 9.33621 25.7917 7.28732 25.1722 5.78197C24.6165 4.4315 23.4189 3.34981 20.5076 2.80624L20.2461 2.75741L20.0434 2.58511C19.1519 1.82721 17.9909 1.54068 16.7763 1.50706C15.562 1.47345 14.4032 1.69467 13.5948 1.85505L24.3962 30.5978ZM24.3962 30.5978C25.1821 31.0733 26.0256 31.5028 26.838 31.9163C27.0608 32.0298 27.2812 32.142 27.4975 32.2536C28.5252 32.7843 29.4936 33.3184 30.3619 33.9695C31.9823 35.1844 33.2902 36.8294 33.7589 39.6907C33.6502 39.7495 33.493 39.822 33.2755 39.9033C32.5618 40.17 31.4447 40.442 29.9604 40.6841C27.0079 41.1655 22.7729 41.5015 17.8061 41.5037C12.8393 41.5015 8.60421 41.1655 5.65176 40.6841C4.16738 40.442 3.05032 40.17 2.33669 39.9033C2.11916 39.822 1.96201 39.7495 1.85331 39.6907C2.32245 36.8188 3.62533 35.1333 5.23985 33.9007C6.10254 33.2421 7.06733 32.7039 8.08903 32.1853C8.4193 32.0177 8.76305 31.8486 9.11138 31.6773C9.80735 31.335 10.5216 30.9836 11.1833 30.6168L10.6984 29.7422L11.1833 30.6168C11.3736 30.5113 11.552 30.4176 11.725 30.3274C11.7441 30.3174 11.7633 30.3075 11.7825 30.2975C11.933 30.2191 12.085 30.1399 12.2263 30.0621C12.5406 29.8891 12.8827 29.681 13.1756 29.3878C13.8346 28.7283 14.0251 27.872 14.0251 26.7389V26.7346V26.7304V26.7261V26.7218V26.7175V26.7132V26.7088V26.7045V26.7001V26.6957V26.6913V26.6869V26.6825V26.6781V26.6736V26.6691V26.6647V26.6602V26.6557V26.6511V26.6466V26.6421V26.6375V26.6329V26.6283V26.6237V26.6191V26.6145V26.6099V26.6052V26.6005V26.5959V26.5912V26.5865V26.5818V26.577V26.5723V26.5675V26.5627V26.558V26.5532V26.5483V26.5435V26.5387V26.5338V26.529V26.5241V26.5192V26.5143V26.5094V26.5045V26.4995V26.4946V26.4896V26.4847V26.4797V26.4747V26.4697V26.4646V26.4596V26.4545V26.4495V26.4444V26.4393V26.4342V26.4291V26.424V26.4189V26.4137V26.4086V26.4034V26.3982V26.393V26.3878V26.3826V26.3774V26.3721V26.3669V26.3616V26.3563V26.351V26.3457V26.3404V26.3351V26.3298V26.3244V26.3191V26.3137V26.3083V26.3029V26.2975V26.2921V26.2867V26.2812V26.2758V26.2703V26.2649V26.2594V26.2539V26.2484V26.2429V26.2373V26.2318V26.2263V26.2207V26.2151V26.2096V26.204V26.1984V26.1928V26.1871V26.1815V26.1759V26.1702V26.1645V26.1589V26.1532V26.1475V26.1418V26.1361V26.1303V26.1246V26.1188V26.1131V26.1073V26.1015V26.0957V26.0899V26.0841V26.0783V26.0725V26.0667V26.0608V26.0549V26.0491V26.0432V26.0373V26.0314V26.0255V26.0196V26.0137V26.0077V26.0018V25.9958V25.9899V25.9839V25.9779V25.9719V25.9659V25.9599V25.9539V25.9478V25.9418V25.9357V25.9297V25.9236V25.9175V25.9114V25.9054V25.8992V25.8931V25.887V25.8809V25.8747V25.8686V25.8624V25.8563V25.8501V25.8439V25.8377V25.8315V25.8253V25.8191V25.8128V25.8066V25.8004V25.7941V25.7878V25.7816V25.7753V25.769V25.7627V25.7564V25.7501V25.7438V25.7374V25.7311V25.7248V25.7184V25.712V25.7057V25.6993V25.6929V25.6865V25.6801V25.6737V25.6673V25.6609V25.6544V25.648V25.6415V25.6351V25.6286V25.6221V25.6157V25.6092V25.6027V25.5962V25.5897V25.5831V25.5766V25.5701V25.5635V25.557V25.5504V25.5439V25.5373V25.5307V25.5242V25.5176V25.511V25.5044V25.4978V25.4911V25.4845V25.4779V25.4712V25.4646V25.4579V25.4513V25.4446V25.4379V25.4313V25.4246V25.4179V25.4112V25.4045V25.3978V25.391V25.3843V25.3776V25.3708V25.3641V25.3574V25.3506V25.3438V25.3371V25.3303V25.3235V25.3167V25.3099V25.3031V25.2963V25.2895V25.2827V25.2759V25.269V25.2622V25.2553V25.2485V25.2416V25.2348V25.2279V25.221V25.2142V25.2073V25.2004V25.1935V25.1866V25.1797V25.1728V25.1659V25.1589V25.152V25.1451V25.1382V25.1312V25.1243V25.1173V25.1104V25.1034V25.0964V25.0894V25.0825V25.0755V25.0685V25.0615V25.0545V25.0475V25.0405V25.0335V25.0265V25.0194V25.0124V25.0054V24.9983V24.9913V24.9843V24.9772V24.9702V24.9631V24.956V24.949V24.9419V24.9348V24.9277V24.9206V24.9136V24.9065V24.8994V24.8923V24.8852V24.878V24.8709V24.8638V24.8567V24.8496V24.8424V24.8353V24.8282V24.821V24.8139V24.8067V24.7996V24.7924V24.7852V24.7781V24.7709V24.7637V24.7566V24.7494V24.7422V24.735V24.7278V24.7206V24.7134V24.7062V24.699V24.6918V24.6846V24.6774V24.6702V24.663V24.6558V24.6485V24.6413V24.6341V24.6268V24.6196V24.6124V24.6051V24.5979V24.5906V24.5834V24.5761V24.5689V24.5616V24.5543V24.5471V24.5398V24.5325V24.5253V24.518V24.5107V24.5034V24.4961V24.4889V24.4816V24.4743V24.467V24.4597V24.4524V24.4451V24.4378V24.4305V24.4232V24.4159V24.4086V24.4013V24.394V24.3867V24.3793V24.372V24.3647V24.3574V24.3501V24.3427V24.3354V24.3281V24.3208V24.3134V24.3061V24.2988V24.2914V24.2841V24.2767V24.2694V24.2621V24.2547V24.2474V24.24V24.2327V24.2253V24.218V24.2106V24.2033V24.1959V24.1886V24.1812V24.1739V24.1665V24.1592V24.1518V24.1445V24.1371V24.1297V24.1224V24.115V24.1076V24.1003V24.0929V24.0856V24.0782V24.0708V24.0635V24.0561V24.0487V24.0414V24.034V24.0266V24.0193V24.0119V24.0045V23.9972V23.9898V23.9824V23.9751V23.9677V23.9603V23.953V23.9456V23.9382V23.9309V23.9235V23.9161V23.9087V23.9014V23.894V23.8866V23.8793V23.8719V23.8645V23.8572V23.8498V23.8425V23.8351V23.8277V23.8204V23.813V23.8056V23.7983V23.7909V23.7836V23.7762V23.7688V23.7615V23.7541V23.7468V23.7394V23.7321V23.7247V23.7174V23.71V23.7027V23.6953V23.688V23.6806V23.6733V23.666V23.6586V23.6513V23.6439V23.6366V23.6293V23.6219V23.6146V23.6073V23.5999V23.5926V23.5853V23.578V23.5706V23.5633V23.556V23.5487V23.5414V23.534V23.5267V23.5194V23.5121V23.5048V23.4975V23.4902V23.4829V23.4756V23.4683V23.461V23.4537V23.4464V23.4392V23.4319V23.4246V23.0383L13.7655 22.7524C13.5838 22.5522 13.4455 22.4105 13.3346 22.2968C13.0901 22.0461 12.9786 21.9317 12.8271 21.6283C12.593 21.1596 12.3289 20.3013 11.9301 18.2618L11.7721 17.4537H10.9487C10.7924 17.4537 10.7531 17.4159 10.7227 17.3862C10.6556 17.3205 10.557 17.1728 10.4403 16.8492C10.3428 16.5791 10.2613 16.2739 10.1614 15.8998C10.1418 15.8263 10.1215 15.7501 10.1001 15.671C9.97681 15.2133 9.82755 14.6866 9.61194 14.1641L9.61178 14.1637C9.36351 13.5626 9.40045 13.2892 9.42101 13.2138C9.43311 13.1694 9.44882 13.1439 9.516 13.1076L9.94307 12.8768L10.0259 12.3985C10.1404 11.7375 10.1327 10.9972 10.1125 10.2968C10.1081 10.1445 10.103 9.99296 10.098 9.84176C10.0788 9.26526 10.0597 8.69362 10.0776 8.10436C10.1223 6.63548 10.3968 5.2591 11.37 4.10061L11.6442 3.77429M24.3962 30.5978L11.6442 3.77429M11.6442 3.77429L11.5986 3.35053M11.6442 3.77429L11.5986 3.35053M11.5986 3.35053L11.4543 2.00734M11.5986 3.35053L11.4543 2.00734M34.8033 39.9149C34.0706 34.477 30.6055 32.7125 27.2725 31.0153C26.465 30.6041 25.6652 30.1968 24.9139 29.7422L34.8033 39.9149ZM34.8033 39.9149L33.8123 40.0483C33.8123 40.0484 33.8123 40.0484 33.8123 40.0485L34.8033 39.9149ZM11.4543 2.00734C12.0468 2.03327 12.7988 2.01309 13.5946 1.85509L11.4543 2.00734ZM33.9364 39.5759C33.9417 39.5703 33.9449 39.5676 33.9451 39.5676C33.9454 39.5676 33.9428 39.5704 33.9364 39.5759ZM1.66716 39.5677C1.66744 39.5677 1.67063 39.5704 1.67587 39.5759C1.66949 39.5704 1.66687 39.5677 1.66716 39.5677Z" stroke="white" stroke-width="2"/>
</svg>
